<?xml version="1.0" encoding="UTF-8" standalone="no"?>
<svg
   id="Layer_2"
   data-name="Layer 2"
   viewBox="0 0 263.24999 263.25"
   version="1.1"
   sodipodi:docname="logo-fav.svg"
   width="263.25"
   height="263.25"
   inkscape:version="1.1.2 (0a00cf5339, 2022-02-04)"
   inkscape:export-filename="/home/dhishan/Downloads/logo-small-cbc.png"
   inkscape:export-xdpi="96"
   inkscape:export-ydpi="96"
   xmlns:inkscape="http://www.inkscape.org/namespaces/inkscape"
   xmlns:sodipodi="http://sodipodi.sourceforge.net/DTD/sodipodi-0.dtd"
   xmlns="http://www.w3.org/2000/svg"
   xmlns:svg="http://www.w3.org/2000/svg">
  <defs
     id="defs3190" />
  <sodipodi:namedview
     id="namedview3188"
     pagecolor="#ffffff"
     bordercolor="#666666"
     borderopacity="1.0"
     inkscape:pageshadow="2"
     inkscape:pageopacity="0.0"
     inkscape:pagecheckerboard="0"
     showgrid="false"
     inkscape:zoom="0.82905983"
     inkscape:cx="135.69588"
     inkscape:cy="215.90722"
     inkscape:window-width="1920"
     inkscape:window-height="1136"
     inkscape:window-x="0"
     inkscape:window-y="0"
     inkscape:window-maximized="1"
     inkscape:current-layer="Layer_2"
     fit-margin-top="0"
     fit-margin-left="0"
     fit-margin-right="0"
     fit-margin-bottom="0" />
  <g
     id="Layer_2-2"
     data-name="Layer 2"
     inkscape:export-filename="/home/dhishan/Downloads/logo-final.png"
     inkscape:export-xdpi="96"
     inkscape:export-ydpi="96"
     transform="translate(50)">
    <g
       id="g3184">
      <polygon
         points="89.11,119.03 119.75,119.03 119.75,106.04 89.11,106.04 89.11,70.06 74.78,70.06 74.78,106.04 43.83,106.04 43.83,119.03 74.78,119.03 74.78,210.79 81.79,217.87 89.11,210.79 "
         id="polygon3180" />
      <path
         d="m 148.57,23.52 v 182.23 c -12.76,3.28 -25.03,8.16 -36.63,14.55 -10.77,5.94 -20.75,13.07 -29.8,21.3 C 72.99,232.8 62.73,225.28 51.49,219.15 39.95,212.86 27.72,208.24 15,205.34 V 23.52 l 60.46,28.11 6.32,2.94 6.32,-2.94 60.46,-28.11 M 163.57,0 81.78,38.02 0,0 v 217.86 c 10.35,1.38 26.64,4.83 44.31,14.46 18.59,10.13 30.7,22.72 37.47,30.93 7.38,-8.27 19.58,-19.99 37.4,-29.82 17.46,-9.63 33.56,-13.7 44.39,-15.57 z"
         id="path3182" />
    </g>
  </g>
</svg>
